<?xml version="1.0" encoding="utf-8"?>
<!-- Generator: Adobe Illustrator 15.0.2, SVG Export Plug-In . SVG Version: 6.00 Build 0)  -->
<!DOCTYPE svg PUBLIC "-//W3C//DTD SVG 1.1//EN" "http://www.w3.org/Graphics/SVG/1.1/DTD/svg11.dtd">
<svg version="1.1" xmlns="http://www.w3.org/2000/svg" xmlns:xlink="http://www.w3.org/1999/xlink" x="0px" y="0px"
	 width="777.707px" height="411.283px" viewBox="0 0 777.707 411.283" enable-background="new 0 0 777.707 411.283"
	 xml:space="preserve">
<g id="Ebene_2">
</g>
<g id="Ebene_1">
	<g>
		
			<line fill="none" stroke="#868786" stroke-width="5.2435" stroke-miterlimit="10" x1="0" y1="363.054" x2="777.707" y2="363.054"/>
		<g>
			<g>
				<path fill="#0080C8" d="M20.703,339.456H1.528v-94.489h19.175v41.548l12.784-1.391l15.563-40.158h21.816l-20.565,47.384
					l21.121,47.104H49.328L33.487,301.8l-12.784,1.39V339.456z"/>
				<path fill="#0080C8" d="M75.867,339.456l21.259-94.489h36.406l21.259,94.489h-19.175l-3.752-17.092h-33.07l-3.752,17.092H75.867
					z M111.995,260.808l-9.588,44.882h25.845l-9.586-44.882H111.995z"/>
				<path fill="#0080C8" d="M162.709,261.642v-16.674h62.529v16.674l-39.461,58.639v2.501h39.461v16.675h-62.529V322.92
					l39.463-58.777v-2.501H162.709z"/>
				<path fill="#0080C8" d="M241.08,339.456v-94.489h19.175v94.489H241.08z"/>
				<path fill="#0080C8" d="M280.681,339.456v-94.489h32.654l16.674,68.921l16.675-68.921h32.653v94.489h-19.176v-73.089h-2.084
					l-18.479,68.92h-19.176l-18.481-68.92h-2.084v73.089H280.681z"/>
				<path fill="#0080C8" d="M430.19,339.456v-94.489h60.306v16.674h-41.13v27.791h33.627v16.674h-33.627v33.35H430.19z"/>
				<path fill="#0080C8" d="M503.833,339.456v-94.489h61.141v16.674h-41.965v22.095h33.628v16.396h-33.628v22.649h41.965v16.675
					H503.833z"/>
				<path fill="#0080C8" d="M599.848,307.774v31.682h-19.175v-94.489h36.684c22.232,0,33.348,10.376,33.348,31.126
					c0,12.32-4.633,21.398-13.895,27.234l13.479,36.128h-20.981l-10.978-31.682H599.848z M627.779,287.209
					c2.223-2.777,3.335-6.438,3.335-10.978c0-4.537-1.182-8.149-3.543-10.838c-2.362-2.686-5.768-4.03-10.214-4.03h-17.509v30.015
					h17.786C622.173,291.379,625.555,289.988,627.779,287.209z"/>
				<path fill="#0080C8" d="M666.684,339.456v-94.489h19.175v94.489H666.684z M666.962,232.879V214.12h18.619v18.759H666.962z"/>
				<path fill="#0080C8" d="M725.459,339.456h-19.176v-94.489h19.176v41.548l12.784-1.391l15.562-40.158h21.815l-20.564,47.384
					l21.121,47.104h-22.094L738.244,301.8l-12.784,1.39V339.456z"/>
			</g>
			
				<rect x="119.697" y="207.397" transform="matrix(0.7072 -0.707 0.707 0.7072 -120.9422 151.5966)" fill="#0080C8" stroke="#0080C8" stroke-width="5.2435" stroke-miterlimit="10" width="5.744" height="28.856"/>
			
				<rect x="103.35" y="207.42" transform="matrix(-0.7071 -0.7071 0.7071 -0.7071 24.5139 453.8503)" fill="#0080C8" stroke="#0080C8" stroke-width="5.2435" stroke-miterlimit="10" width="5.805" height="28.856"/>
		</g>
		<g>
			
				<rect x="335.145" y="44.981" transform="matrix(0.7071 -0.7071 0.7071 0.7071 33.0482 272.4256)" fill="#868786" stroke="#868786" stroke-width="15.7305" stroke-miterlimit="10" width="20.436" height="102.679"/>
			
				<rect x="372.076" y="9.435" fill="#868786" stroke="#868786" stroke-width="15.7305" stroke-miterlimit="10" width="20.437" height="196.237"/>
			
				<rect x="276.973" y="45.061" transform="matrix(-0.7071 -0.7071 0.7071 -0.7071 422.2872 367.7225)" fill="#868786" stroke="#868786" stroke-width="15.7305" stroke-miterlimit="10" width="20.66" height="102.679"/>
			
				<rect x="465.794" y="-3.228" transform="matrix(-0.7071 -0.7071 0.7071 -0.7071 765.9901 449.1028)" fill="#868786" stroke="#868786" stroke-width="15.7305" stroke-miterlimit="10" width="20.435" height="138.26"/>
			<polygon fill="#868786" stroke="#868786" stroke-width="15.7305" stroke-miterlimit="10" points="419.902,107.543 
				434.511,92.939 534.01,192.438 519.401,207.042 			"/>
		</g>
		<g>
			<path fill="#868786" d="M0.409,380.753h11.589c3.12,0,5.452,0.632,6.998,1.896c1.544,1.263,2.317,3.276,2.317,6.038
				c0,1.813-0.289,3.238-0.87,4.279c-0.578,1.04-1.493,1.9-2.741,2.585c2.913,1.129,4.368,3.492,4.368,7.086
				c0,5.765-3.239,8.646-9.716,8.646H0.409V380.753z M11.731,385.031H5.357v8.736h6.552c2.911,0,4.368-1.499,4.368-4.501
				C16.277,386.443,14.761,385.031,11.731,385.031z M11.998,397.958H5.357v9.047h6.729c1.634,0,2.86-0.341,3.678-1.024
				c0.817-0.684,1.225-1.856,1.225-3.522c0-1.663-0.477-2.829-1.426-3.498C14.613,398.291,13.424,397.958,11.998,397.958z"/>
			<path fill="#868786" d="M28.533,411.283v-30.53h19.255v4.323H33.48v8.646h11.633v4.279H33.48v8.914h14.307v4.367H28.533z"/>
			<path fill="#868786" d="M58.974,400.409v10.874h-4.948v-30.53h11.589c6.893,0,10.34,3.239,10.34,9.717
				c0,4.338-1.664,7.279-4.991,8.824L76,411.283h-5.438l-4.413-10.874H58.974z M70.874,390.515c0-3.654-1.754-5.483-5.259-5.483
				h-6.641v11.1h6.73c1.783,0,3.09-0.514,3.922-1.539C70.458,393.567,70.874,392.208,70.874,390.515z"/>
			<path fill="#868786" d="M79.477,411.283l7.532-30.53h9.851l7.576,30.53h-4.992l-1.649-6.551H86.073l-1.648,6.551H79.477z
				 M90.842,384.898l-3.788,15.466h9.761l-3.744-15.466H90.842z"/>
			<path fill="#868786" d="M104.882,385.165v-4.412h22.285v4.412h-8.603v26.118h-4.991v-26.118H104.882z"/>
			<path fill="#868786" d="M132.112,411.283v-30.53h19.255v4.323H137.06v8.646h11.633v4.279H137.06v8.914h14.307v4.367H132.112z"/>
			<path fill="#868786" d="M157.606,411.283v-30.53h8.648l9.269,26.163h0.67v-26.163h4.947v30.53h-8.469l-9.494-26.207h-0.624
				v26.207H157.606z"/>
			<path fill="#868786" d="M200.839,402.693v-12.569h11.142v12.569H200.839z"/>
			<path fill="#868786" d="M231.679,411.283v-30.53h18.942v4.323h-13.995v10.296h11.632v4.323h-11.632v11.588H231.679z"/>
			<path fill="#868786" d="M256.103,411.283v-30.53h4.948v30.53H256.103z"/>
			<path fill="#868786" d="M268.939,411.283v-30.53h8.647l9.27,26.163h0.669v-26.163h4.946v30.53h-8.468l-9.494-26.207h-0.623
				v26.207H268.939z"/>
			<path fill="#868786" d="M297.731,411.283l7.532-30.53h9.851l7.576,30.53h-4.992l-1.648-6.551h-11.723l-1.648,6.551H297.731z
				 M309.097,384.898l-3.788,15.466h9.761l-3.744-15.466H309.097z"/>
			<path fill="#868786" d="M327.904,411.283v-30.53h8.647l9.27,26.163h0.67v-26.163h4.946v30.53h-8.468l-9.494-26.207h-0.624v26.207
				H327.904z"/>
			<path fill="#868786" d="M357.677,385.076v-4.323h20.056v4.769l-14.172,20.592v0.847h14.172v4.323h-20.056v-4.724l14.129-20.591
				v-0.893H357.677z"/>
			<path fill="#868786" d="M383.972,411.283v-30.53h4.948v30.53H383.972z"/>
			<path fill="#868786" d="M396.808,411.283v-30.53h19.255v4.323h-14.307v8.646h11.633v4.279h-11.633v8.914h14.307v4.367H396.808z"
				/>
			<path fill="#868786" d="M427.25,400.409v10.874h-4.947v-30.53h11.589c6.893,0,10.34,3.239,10.34,9.717
				c0,4.338-1.664,7.279-4.991,8.824l5.036,11.989h-5.438l-4.412-10.874H427.25z M439.151,390.515c0-3.654-1.754-5.483-5.259-5.483
				h-6.642v11.1h6.729c1.783,0,3.091-0.514,3.923-1.539C438.734,393.567,439.151,392.208,439.151,390.515z"/>
			<path fill="#868786" d="M450.693,411.283v-30.53h19.255v4.323H455.64v8.646h11.633v4.279H455.64v8.914h14.308v4.367H450.693z"/>
			<path fill="#868786" d="M476.187,411.283v-30.53h8.647l9.27,26.163h0.67v-26.163h4.946v30.53h-8.468l-9.494-26.207h-0.624v26.207
				H476.187z"/>
			<path fill="#868786" d="M519.418,403.693v-12.569h11.143v12.569H519.418z"/>
			<path fill="#868786" d="M547.631,411.283l7.532-30.53h9.851l7.576,30.53h-4.992l-1.648-6.551h-11.722l-1.648,6.551H547.631z
				 M558.997,384.898l-3.788,15.466h9.762l-3.745-15.466H558.997z"/>
			<path fill="#868786" d="M577.804,380.753h11.589c3.12,0,5.452,0.632,6.998,1.896c1.544,1.263,2.316,3.276,2.316,6.038
				c0,1.813-0.289,3.238-0.868,4.279c-0.58,1.04-1.494,1.9-2.742,2.585c2.913,1.129,4.368,3.492,4.368,7.086
				c0,5.765-3.239,8.646-9.716,8.646h-11.945V380.753z M589.125,385.031h-6.374v8.736h6.553c2.91,0,4.368-1.499,4.368-4.501
				C593.672,386.443,592.156,385.031,589.125,385.031z M589.393,397.958h-6.642v9.047h6.73c1.634,0,2.859-0.341,3.678-1.024
				c0.816-0.684,1.225-1.856,1.225-3.522c0-1.663-0.477-2.829-1.426-3.498C592.007,398.291,590.82,397.958,589.393,397.958z"/>
			<path fill="#868786" d="M614.886,384.586c-3.772,0-5.659,1.322-5.659,3.968c0,1.366,0.445,2.339,1.336,2.919
				c0.894,0.579,2.859,1.292,5.905,2.139s5.194,1.856,6.44,3.031c1.248,1.174,1.873,3.023,1.873,5.549
				c0,3.208-0.914,5.608-2.742,7.198c-1.826,1.589-4.314,2.384-7.465,2.384c-2.525,0-5.319-0.297-8.379-0.891l-1.604-0.312
				l0.49-3.967c4.011,0.535,7.072,0.803,9.181,0.803c3.685,0,5.527-1.633,5.527-4.903c0-1.276-0.416-2.221-1.248-2.83
				c-0.833-0.608-2.703-1.276-5.615-2.004c-2.911-0.729-5.081-1.732-6.508-3.01c-1.427-1.276-2.14-3.299-2.14-6.062
				c0-2.764,0.899-4.851,2.698-6.262c1.796-1.411,4.283-2.118,7.464-2.118c2.288,0,4.992,0.269,8.112,0.803l1.56,0.269l-0.401,4.011
				C619.551,384.824,616.61,384.586,614.886,384.586z"/>
			<path fill="#868786" d="M630.975,411.283v-30.53h4.948v30.53H630.975z"/>
			<path fill="#868786" d="M654.063,411.773c-4.456,0-7.48-1.231-9.07-3.699c-1.59-2.465-2.384-6.521-2.384-12.168
				c0-5.644,0.803-9.664,2.405-12.055c1.606-2.392,4.621-3.589,9.049-3.589c2.645,0,5.556,0.373,8.735,1.114l-0.178,4.012
				c-2.674-0.476-5.349-0.713-8.022-0.713s-4.486,0.795-5.438,2.385c-0.951,1.589-1.426,4.575-1.426,8.958s0.461,7.369,1.383,8.959
				c0.92,1.589,2.718,2.384,5.392,2.384c2.675,0,5.379-0.223,8.112-0.668l0.133,4.101
				C659.694,411.446,656.795,411.773,654.063,411.773z"/>
			<path fill="#868786" d="M687.044,411.283v-13.192h-13.192v13.192h-4.948v-30.53h4.948v13.015h13.192v-13.015h4.992v30.53H687.044
				z"/>
			<path fill="#868786" d="M699.879,411.283v-30.53h19.255v4.323h-14.307v8.646h11.633v4.279h-11.633v8.914h14.307v4.367H699.879z"
				/>
			<path fill="#868786" d="M730.322,400.409v10.874h-4.948v-30.53h11.59c6.892,0,10.339,3.239,10.339,9.717
				c0,4.338-1.663,7.279-4.99,8.824l5.036,11.989h-5.438l-4.412-10.874H730.322z M742.222,390.515c0-3.654-1.754-5.483-5.259-5.483
				h-6.642v11.1h6.729c1.783,0,3.091-0.514,3.923-1.539C741.805,393.567,742.222,392.208,742.222,390.515z"/>
			<path fill="#868786" d="M753.763,411.283v-30.53h8.647l9.27,26.163h0.67v-26.163h4.947v30.53h-8.469l-9.494-26.207h-0.623v26.207
				H753.763z"/>
		</g>
	</g>
</g>
</svg>
